<svg width="1200" height="700" viewBox="0 0 1200 700" fill="none" xmlns="http://www.w3.org/2000/svg">
  <defs>
    <linearGradient id="bg" x1="0" y1="0" x2="1" y2="1">
      <stop offset="0%" stop-color="#1d1f2b" />
      <stop offset="55%" stop-color="#0a0a0f" />
      <stop offset="100%" stop-color="#070709" />
    </linearGradient>
    <linearGradient id="panel" x1="0" y1="0" x2="1" y2="1">
      <stop offset="0%" stop-color="#2b2d3a" />
      <stop offset="70%" stop-color="#111219" />
    </linearGradient>
  </defs>
  <rect width="1200" height="700" fill="url(#bg)" />
  <rect x="360" y="80" width="480" height="540" rx="40" fill="url(#panel)" stroke="#2a2d39" stroke-width="2" />
  <rect x="395" y="120" width="410" height="110" rx="22" fill="#101016" stroke="#1f2028" />
  <text x="785" y="200" font-family="SF Pro Display, Helvetica, Arial, sans-serif" font-size="48" fill="#f5f5f7" text-anchor="end">8,888</text>
  <text x="785" y="150" font-family="SF Pro Display, Helvetica, Arial, sans-serif" font-size="14" fill="#8b8b93" text-anchor="end" letter-spacing="4">+</text>
  <g fill="#2c2f3b">
    <rect x="395" y="260" width="80" height="80" rx="40" />
    <rect x="495" y="260" width="80" height="80" rx="40" />
    <rect x="595" y="260" width="80" height="80" rx="40" />
    <rect x="695" y="260" width="80" height="80" rx="40" fill="#ff9f0a" />
    <rect x="395" y="360" width="80" height="80" rx="40" />
    <rect x="495" y="360" width="80" height="80" rx="40" />
    <rect x="595" y="360" width="80" height="80" rx="40" />
    <rect x="695" y="360" width="80" height="80" rx="40" fill="#ff9f0a" />
    <rect x="395" y="460" width="80" height="80" rx="40" />
    <rect x="495" y="460" width="80" height="80" rx="40" />
    <rect x="595" y="460" width="80" height="80" rx="40" />
    <rect x="695" y="460" width="80" height="80" rx="40" fill="#ff9f0a" />
    <rect x="395" y="560" width="180" height="80" rx="40" />
    <rect x="595" y="560" width="80" height="80" rx="40" />
    <rect x="695" y="560" width="80" height="80" rx="40" fill="#ff9f0a" />
  </g>
  <g font-family="SF Pro Display, Helvetica, Arial, sans-serif" font-size="26" fill="#f5f5f7">
    <text x="435" y="312" text-anchor="middle">AC</text>
    <text x="535" y="312" text-anchor="middle">+/-</text>
    <text x="635" y="312" text-anchor="middle">%</text>
    <text x="735" y="312" text-anchor="middle">÷</text>
    <text x="435" y="412" text-anchor="middle">7</text>
    <text x="535" y="412" text-anchor="middle">8</text>
    <text x="635" y="412" text-anchor="middle">9</text>
    <text x="735" y="412" text-anchor="middle">×</text>
    <text x="435" y="512" text-anchor="middle">4</text>
    <text x="535" y="512" text-anchor="middle">5</text>
    <text x="635" y="512" text-anchor="middle">6</text>
    <text x="735" y="512" text-anchor="middle">−</text>
    <text x="445" y="612" text-anchor="start">0</text>
    <text x="635" y="612" text-anchor="middle">.</text>
    <text x="735" y="612" text-anchor="middle">=</text>
  </g>
</svg>
